<svg version="1" xmlns="http://www.w3.org/2000/svg" width="392" height="392" viewBox="0 0 294.000000 294.000000"><path d="M130 1c0 .6-2.6 1-5.9 1-3.3 0-6.3.4-6.6 1-.3.5-2.1 1-4 1s-3.7.4-4 1c-.3.5-1.9 1-3.4 1s-3.1.4-3.6.8c-.6.4-2.8 1.4-5 2.1C89.6 11.4 72 19.8 72 21.1c0 .5-.9.9-2 .9s-2 .4-2 .8c0 .5-1.2 1.5-2.7 2.3-1.6.8-3.5 2.2-4.4 3.1-.9 1-2.1 1.8-2.8 1.8C56.7 30 30 56.7 30 58.1c0 .7-.8 1.9-1.8 2.8-.9.9-2.3 2.8-3.1 4.3-.8 1.6-1.8 2.8-2.3 2.8-.4 0-.8.9-.8 2s-.4 2-.9 2c-1.3 0-9.7 17.6-12.2 25.5-.7 2.2-1.7 4.4-2.1 4.9-.4.6-.8 2.2-.8 3.7s-.4 3.1-1 3.4c-.5.3-1 2.1-1 4s-.4 3.7-1 4c-.5.3-1 3.3-1 6.6s-.4 5.9-1 5.9-1 6.3-1 17 .4 17 1 17 1 2.6 1 5.9c0 3.3.5 6.3 1 6.6.6.3 1 2.1 1 4s.5 3.7 1 4c.6.3 1 1.9 1 3.5s.5 3.2 1 3.5c.6.3 1 1.5 1 2.6 0 1 .4 2.7.9 3.7.5.9 1.3 2.8 1.9 4.2 2.5 6.4 9.6 20 10.3 20 .5 0 .9.9.9 2s.4 2 .8 2c.5 0 1.5 1.2 2.3 2.7.8 1.6 2.2 3.5 3.1 4.4 1 .9 1.8 2.1 1.8 2.8 0 1.4 26.7 28.1 28.1 28.1.7 0 1.9.8 2.8 1.8.9.9 2.8 2.3 4.4 3.1 1.5.8 2.7 1.8 2.7 2.3 0 .4.9.8 2 .8s2 .4 2 .9c0 1.3 17.6 9.7 25.5 12.2 2.2.7 4.4 1.7 5 2.1.5.4 2.1.8 3.6.8s3.1.4 3.4 1c.3.5 2.1 1 4 1s3.7.5 4 1c.3.6 3.3 1 6.6 1s5.9.4 5.9 1 6.3 1 17 1 17-.4 17-1 2.6-1 5.9-1c3.3 0 6.3-.5 6.6-1 .3-.6 2.1-1 4-1s3.7-.5 4-1c.3-.6 1.9-1 3.4-1s3.1-.4 3.6-.8c.6-.4 2.8-1.4 5-2.1 7.9-2.5 25.5-10.9 25.5-12.2 0-.5.9-.9 2-.9s2-.4 2-.8c0-.5 1.2-1.5 2.8-2.3 1.5-.8 3.4-2.2 4.3-3.1.9-1 2.1-1.8 2.8-1.8 1.4 0 28.1-26.7 28.1-28.1 0-.7.8-1.9 1.8-2.8.9-.9 2.3-2.8 3.1-4.3.8-1.6 1.8-2.8 2.3-2.8.4 0 .8-.9.8-2s.4-2 .9-2c.7 0 7.8-13.6 10.3-20 .6-1.4 1.4-3.3 1.9-4.2.5-1 .9-2.7.9-3.7 0-1.1.5-2.3 1-2.6.6-.3 1-1.9 1-3.5s.5-3.2 1-3.5c.6-.3 1-2.1 1-4s.5-3.7 1-4c.6-.3 1-3.3 1-6.6s.4-5.9 1-5.9 1-6.3 1-17-.4-17-1-17-1-2.6-1-5.9c0-3.3-.4-6.3-1-6.6-.5-.3-1-2.1-1-4s-.4-3.7-1-4c-.5-.3-1-1.9-1-3.5s-.4-3.2-1-3.5c-.5-.3-1-1.5-1-2.6 0-1-.4-2.7-.9-3.7-.5-.9-1.3-2.8-1.9-4.2-2.5-6.4-9.6-20-10.3-20-.5 0-.9-.9-.9-2s-.4-2-.8-2c-.5 0-1.5-1.2-2.3-2.8-.8-1.5-2.2-3.4-3.1-4.3-1-.9-1.8-2.1-1.8-2.8 0-1.4-26.7-28.1-28.1-28.1-.7 0-1.9-.8-2.8-1.8-.9-.9-2.8-2.3-4.3-3.1-1.6-.8-2.8-1.8-2.8-2.3 0-.4-.9-.8-2-.8s-2-.4-2-.9c0-1.3-17.6-9.7-25.5-12.2-2.2-.7-4.4-1.7-4.9-2.1-.6-.4-2.2-.8-3.7-.8s-3.1-.5-3.4-1c-.3-.6-2.1-1-4-1s-3.7-.5-4-1c-.3-.6-3.3-1-6.6-1s-5.9-.4-5.9-1-6.3-1-17-1-17 .4-17 1zm33.5 26.9c3.9.6 9.1 1.3 11.8 1.7 2.6.3 4.7 1 4.7 1.5s1.4.9 3 .9c1.7 0 3 .4 3 1 0 .5 1.4 1 3 1 1.7 0 3 .4 3 1 0 .5 1.4 1 3 1 1.7 0 3 .4 3 1 0 .5.9 1 2 1s2 .4 2 1c0 .5.9 1 2 1s2 .4 2 1c0 .5.8 1 1.8 1s2.4.9 3.2 2c.8 1.1 2.1 2 3 2 .9 0 2.2.9 3 2 .8 1.1 2.1 2 2.8 2 .8 0 2.7 1.3 4.2 3 1.5 1.6 3.3 3 4 3 1.4 0 16 14.8 16 16.2 0 .5 1.4 2.3 3 3.8 1.7 1.5 3 3.4 3 4.2 0 .7.9 2 2 2.8 1.1.8 2 2.2 2 3.2s.5 1.8 1 1.8c.6 0 1 .9 1 2s.5 2 1 2c.6 0 1 .7 1 1.5 0 .9.9 2.5 2 3.7 1.1 1.2 2 3.2 2 4.5 0 1.3.5 2.3 1 2.3.6 0 1 1.3 1 3 0 1.6.5 3 1 3 .6 0 1 1.3 1 3 0 1.6.5 3 1 3 .6 0 1 1.8 1 4s.4 4 .9 4c1.1 0 2.2 11.9 2.2 23 0 11.9-1.2 25-2.2 25-.5 0-.9 1.8-.9 4s-.4 4-1 4c-.5 0-1 1.3-1 3 0 1.6-.4 3-1 3-.5 0-1 1.3-1 3 0 1.6-.4 3-1 3-.5 0-1 .9-1 2s-.4 2-1 2c-.5 0-1 .9-1 2s-.4 2-1 2c-.5 0-1 .9-1 2s-.4 2-1 2c-.5 0-1 .9-1 2s-.4 2-1 2c-.5 0-1 .8-1 1.8s-.9 2.4-2 3.2c-1.1.8-2 2.1-2 2.8 0 .8-1.3 2.7-3 4.2-1.6 1.5-3 3.3-3 3.8 0 1.4-14.6 16.2-16 16.2-.7 0-2.5 1.3-4 3-1.5 1.6-3.4 3-4.2 3-.7 0-2 .9-2.8 2-.8 1.1-2.1 2-3 2-.9 0-2.2.9-3 2-.8 1.1-2.2 2-3.2 2s-1.8.4-1.8 1c0 .5-.9 1-2 1s-2 .4-2 1c0 .5-.9 1-2 1s-2 .4-2 1c0 .5-1.3 1-3 1-1.6 0-3 .4-3 1 0 .5-1.3 1-3 1-1.6 0-3 .4-3 1 0 .5-1.3 1-3 1-1.6 0-3 .4-3 .9s-2.1 1.2-4.7 1.5c-2.7.4-7.9 1.1-11.8 1.7-11.5 1.8-41.5.9-41.5-1.2 0-.5-1.8-.9-4-.9s-4-.5-4-1c0-.6-1.3-1-3-1-1.6 0-3-.5-3-1 0-.6-.3-.9-.7-.8-1.4.5-11.3-2.5-11.3-3.4 0-.4-.9-.8-2-.8s-2-.5-2-1c0-.6-.9-1-2-1s-2-.5-2-1c0-.6-.9-1-2-1s-2-.5-2-1c0-.6-.8-1-1.8-1s-2.4-.9-3.2-2c-.8-1.1-2.1-2-2.8-2-.8 0-2.7-1.4-4.2-3-1.5-1.7-3.3-3-3.9-3-1.5 0-20.1-18.6-20.1-20.1 0-.6-1.4-2.4-3-3.9-1.7-1.5-3-3.5-3-4.4 0-.9-.4-1.6-1-1.6-.5 0-1-.8-1-1.8s-.9-2.4-2-3.2c-1.1-.8-2-2.2-2-3.2s-.4-1.8-.8-1.8c-.5 0-1.5-2.3-2.2-5-.7-2.8-1.7-5-2.2-5-.4 0-.8-1.4-.8-3 0-1.7-.4-3-1-3-.5 0-1-1.4-1-3 0-1.7-.4-3-1-3-.5 0-1-1.8-1-3.9 0-2.2-.4-4.1-.9-4.3-.6-.2-1.1-3.3-1.2-7.1-.1-3.7-.6-6.7-1.1-6.7-1.1 0-.4-17.6 1.1-27.5.6-3.9 1.3-9.1 1.7-11.8.3-2.6 1-4.7 1.5-4.7s.9-1.4.9-3c0-1.7.5-3 1-3 .6 0 1-.9 1-2s.5-2 1-2c.6 0 1-1.4 1-3 0-1.7.5-3 1-3 .6 0 1-.9 1-2s.5-2 1-2c.6 0 1-.9 1-2s.4-2 .9-2 1.4-1.4 2.1-3c.7-1.7 1.6-3 2.1-3s.9-.7.9-1.6c0-.9 1.4-2.9 3-4.4 1.7-1.5 3-3.3 3-3.9C48 72.6 66.6 54 68.1 54c.6 0 2.4-1.4 3.9-3 1.5-1.7 3.4-3 4.2-3 .7 0 2-.9 2.8-2 .8-1.1 2.2-2 3.2-2s1.8-.5 1.8-1c0-.6.9-1 2-1s2-.5 2-1c0-.6.9-1 2-1s2-.5 2-1c0-.6.9-1 2-1s2-.4 2-.8c0-.9 9.9-3.9 11.3-3.4.4.1.7-.3.7-.8 0-.6 1.4-1 3-1 1.7 0 3-.5 3-1 0-.6 1.8-1 4-1s4-.5 4-1c0-.6 2.9-1 6.8-1 3.7 0 7.4-.5 8.2-1 1.7-1.2 15.9-.7 26.5.9z"/><path d="M82 91c0 .5-1.8 1-4 1s-4 .4-4 1c0 .5-1.3 1-3 1-1.6 0-3 .4-3 1 0 .5-.9 1-2 1s-2 .4-2 .8c0 .5-1.2 1.5-2.7 2.3-3.8 1.9-7.3 5.5-7.3 7.4 0 .8-.4 1.5-1 1.5-.5 0-1 .9-1 2s-.4 2-1 2c-.5 0-1 1.3-1 3 0 1.6-.5 3-1.1 3-.7 0-.9 1.5-.5 4.2 1 8.3 1.8 11.8 2.6 11.8.5 0 1.1.9 1.5 2 .8 2.6 7.2 9.1 10.8 10.9 1.5.8 2.7 1.8 2.7 2.3 0 .4.9.8 2 .8s2 .4 2 1c0 .5 1.4 1 3 1 1.7 0 3 .4 3 1 0 .5 1.8 1 4 1s4 .4 4 1c0 .5 1.4 1 3 1 1.7 0 3 .4 3 .9s1.6 1.2 3.5 1.5c1.9.3 5.1.9 7 1.2 1.9.3 3.5 1 3.5 1.5s.7.9 1.5.9c3.4 0 10.3 10.9 7.5 11.8-.5.2-1 1.5-1 2.9 0 2.8-2.1 5.3-4.4 5.3-.9 0-1.6.4-1.6 1 0 .5-1.8 1-4 1s-4 .4-4 1c0 .5-2.2 1-5 1-2.7 0-5-.5-5-1 0-.6-2.2-1-5-1-2.7 0-5-.5-5-1 0-.6-.8-1-1.8-1s-2.4-.9-3.2-2c-.8-1.1-2-2-2.7-2-.8 0-3.8-2.5-6.8-5.5-3.1-3-6-5.5-6.5-5.5-1.9 0-13 11.9-13 14 0 2.1 8.1 11 10.1 11 .6 0 2.4 1.3 3.9 3 1.5 1.6 3.5 3 4.4 3 .9 0 1.6.4 1.6.8 0 .5 2.3 1.5 5 2.2 2.8.7 5 1.7 5 2.2 0 .4 2.3.8 5 .8 2.9 0 5 .5 5 1.1 0 .7 2.4.9 7.3.5 11-.8 16.7-1.7 16.7-2.7 0-.5 1.4-.9 3-.9 1.7 0 3-.5 3-1 0-.6.9-1 2-1s2-.5 2-1c0-.6.7-1 1.5-1 2.2 0 10-8.1 12.4-12.9 1.7-3.2 2.1-5.9 2.1-13.6 0-5.7-.4-9.5-1-9.5-.5 0-1-.9-1-2s-.4-2-1-2c-.5 0-1-.7-1-1.5 0-2-6.5-8.5-8.5-8.5-.8 0-1.5-.3-1.5-.8 0-.4-1.5-1.3-3.2-2-1.8-.7-4.1-1.8-5-2.3-1-.5-3.1-.9-4.8-.9-1.6 0-3-.5-3-1 0-.6-1.3-1-3-1-1.6 0-3-.5-3-1 0-.6-1-1-2.2-1-1.2 0-3.5-.4-5.2-1-1.7-.5-5.2-1.5-7.8-2.2-2.7-.7-4.8-1.6-4.8-2 0-.4-.7-.8-1.5-.8-.9 0-2.7-1.1-4-2.5-1.9-1.8-2.5-3.5-2.5-7 0-2.5.5-4.5 1-4.5.6 0 1-.8 1-1.8 0-1.8 3.7-4.2 6.5-4.2.8 0 1.5-.5 1.5-1 0-.6 4-1 10-1 5.5 0 10 .4 10 .9s1.3 1.1 2.9 1.4c1.6.4 4 1.6 5.3 2.9 1.2 1.3 3.5 2.9 5.1 3.7 1.5.8 2.7 1.8 2.7 2.3 0 .4.7.8 1.5.8 2.3 0 12.5-10.6 12.5-13 0-2.4-8.2-11-10.5-11-.8 0-1.5-.5-1.5-1 0-.6-.9-1-2-1s-2-.5-2-1c0-.6-1.3-1-3-1-1.6 0-3-.5-3-1 0-.6-1.8-1-4-1s-4-.5-4-1c0-.6-3.7-1-9-1s-9 .4-9 1zM190 90.9c0 .6-2.1 1.1-5 1.1-2.7 0-5 .4-5 .8 0 .5-2.2 1.5-5 2.2-2.7.7-5 1.7-5 2.2 0 .4-.7.8-1.5.8s-2.9 1.3-4.7 3c-1.7 1.6-3.5 3-4 3-1.4 0-7.8 6.8-7.8 8.2 0 .8-.9 2-2 2.8-1.1.8-2 2.2-2 3.2s-.4 1.8-1 1.8c-.5 0-1 .9-1 2s-.4 2-1 2c-.5 0-1 1.3-1 3 0 1.6-.4 3-.9 3-1.1 0-2.2 9.1-2.2 18s1.1 18 2.2 18c.5 0 .9 1.3.9 3 0 1.6.5 3 1 3 .6 0 1 .9 1 2s.5 2 1 2c.6 0 1 .8 1 1.8s.9 2.4 2 3.2c1.1.8 2 2 2 2.7 0 1.7 8.6 10.3 10.3 10.3.7 0 1.9.9 2.7 2 .8 1.1 2.2 2 3.2 2s1.8.4 1.8 1c0 .5.9 1 2 1s2 .4 2 1c0 .5 1.4 1 3 1 1.7 0 3 .4 3 1 0 .5 1.8 1 4 1s4 .4 4 1 3.7 1 9 1 9-.4 9-1 1.8-1 4-1 4-.5 4-1c0-.6 1.4-1 3-1 1.7 0 3-.5 3-1 0-.6.6-1 1.3-1 1.8 0 6.7-2.4 6.7-3.3 0-.4.7-.7 1.5-.7 2 0 16.5-14.5 16.5-16.5 0-.8.5-1.5 1-1.5.6 0 1-.9 1-2s.5-2 1-2c.6 0 1-1.4 1-3 0-1.7.5-3 1-3 .6 0 1-1.4 1-3 0-1.7.5-3 1-3 1.7 0 1.3-18.9-.4-20.6-1.2-1.1-6.4-1.4-28.6-1.4-22.2 0-27.4.3-28.6 1.4-1 1-1.4 3.9-1.4 10v8.6h19c18.3 0 19 .1 19 2 0 1.1-.4 2-1 2-.5 0-1 .9-1 2s-.4 2-1 2c-.5 0-1 .7-1 1.5 0 2-8.5 10.5-10.5 10.5-.8 0-1.5.4-1.5 1 0 .5-.9 1-2 1s-2 .4-2 1c0 .5-1.8 1-4 1s-4 .5-4 1.1c0 1.1-9.8.8-15.5-.6-4.3-1-8.5-2.9-8.5-3.7 0-.5-.7-.8-1.5-.8-2 0-10.5-8.5-10.5-10.5 0-.8-.4-1.5-1-1.5-.5 0-1-.9-1-2s-.4-2-.9-2c-1.4 0-2.3-6.6-2.3-16s.9-16 2.3-16c.5 0 .9-.9.9-2s.5-2 1-2c.6 0 1-.7 1-1.5 0-.9 2-3.6 4.5-6 2.4-2.5 5.1-4.5 6-4.5.8 0 1.5-.5 1.5-1 0-.6.9-1 2-1s2-.5 2-1c0-.6 1.8-1 4-1s4-.5 4-1c0-.6 2.3-1 5-1 2.8 0 5 .4 5 1 0 .5 2.3 1 5 1 2.8 0 5 .4 5 1 0 .5.9 1 2 1s2 .4 2 1c0 .5.6 1 1.4 1 .7 0 3.2 1.8 5.5 4 2.2 2.2 4.6 4 5.1 4 .6 0 3.5-2.5 6.5-5.5 4.3-4.3 5.5-6.1 5.5-8.5 0-3.2-1.9-6-4-6-.7 0-2.5-1.4-4-3-1.5-1.7-3.5-3-4.3-3-.9 0-1.7-.4-1.9-.8-.4-1-10-4.2-16.3-5.4-8.2-1.6-19.5-2.1-19.5-.9z"/></svg>